<svg width="53" height="52" viewBox="0 0 53 52" fill="none" xmlns="http://www.w3.org/2000/svg">
<path d="M50.9767 24.8151C50.6475 17.9094 47.5456 11.7902 42.7979 7.48387C39.8411 4.80079 36.2371 2.82056 32.2705 1.79418C30.8925 1.43718 29.4698 1.19732 28.0137 1.08018C27.0542 1.00209 26.0778 0.979773 25.0904 1.01882C25.0011 1.01882 24.9063 1.01882 24.817 1.02998C23.545 1.09134 22.2953 1.24752 21.0847 1.48738C16.9172 2.31852 13.1458 4.17046 10.0216 6.77545C4.2028 11.6228 0.643428 19.0418 1.02838 27.1858C1.47469 36.5459 7.00901 44.4557 14.8363 48.3716C16.1473 49.0298 17.5142 49.5709 18.9368 49.9892C20.8894 50.5638 22.9369 50.9041 25.0457 50.9821C25.7543 51.01 26.4628 51.0045 27.1825 50.971C27.3164 50.9654 27.4503 50.9598 27.5842 50.9487C30.7642 50.7479 33.7768 49.9558 36.5105 48.6895C38.2567 47.8807 39.8857 46.8766 41.3809 45.7108C47.5568 40.8857 51.3728 33.2381 50.9711 24.8151H50.9767Z" fill="#EE5229" stroke="#130000" stroke-width="2" stroke-miterlimit="10"/>
<path d="M24.8086 19.293L24.7949 19.6562L25.1367 19.7812L33.3828 22.8027L24.9326 25.207L24.584 25.3066L24.5703 25.6689L24.2344 34.4424L19.3457 27.1436L19.1436 26.8418L18.7939 26.9414L10.3438 29.3369L15.7715 22.4375L15.9961 22.1514L15.7939 21.8496L10.8965 14.5576L19.1436 17.5791L19.4844 17.7041L19.709 17.4189L25.1367 10.5166L24.8086 19.293Z" fill="#F8B733" stroke="#130000"/>
</svg>
