<svg width="42" height="34" viewBox="0 0 42 34" fill="none" xmlns="http://www.w3.org/2000/svg">
<path d="M42 20.0558C42 20.0558 39.173 20.5249 36.8067 18.9125C34.4405 17.3036 39.5125 9.37367 30.0752 2.50014C26.5068 -0.0991539 22.8241 0.783494 20.9983 1.50629C19.1725 0.783494 15.4897 -0.0991539 11.9213 2.50014C2.4875 9.37367 7.55951 17.3036 5.19327 18.9125C2.82702 20.5214 0 20.0558 0 20.0558L3.90101 24.191L0.620144 27.117L7.61495 29.334L7.7466 33.5596C7.7466 33.5596 15.9159 29.473 19.3076 27.6243L20.9983 27.5652L22.6889 27.6243C26.0807 29.473 34.2499 33.5596 34.2499 33.5596L34.3816 29.334L41.3764 27.117L38.0955 24.191L41.9965 20.0558H42Z" fill="#130000"/>
<path d="M9.08484 18.7528C9.08484 21.022 8.60674 22.6344 6.04649 22.3633C4.79927 22.2313 3.68024 21.4737 3.16403 20.327C1.89949 17.5122 3.91929 14.7739 6.57309 14.7739C8.6691 14.7739 9.08138 16.6469 9.08138 18.7528H9.08484Z" fill="#F8B733" stroke="#130000" stroke-miterlimit="10"/>
<path d="M8.86231 18.0021C8.79995 17.672 8.66829 17.3558 8.47082 17.0813C7.965 16.3758 6.8633 15.2013 5.42553 15.7469C3.8873 16.3307 3.4092 17.9431 4.0917 19.0724C4.5802 19.8786 5.15877 20.1219 5.44978 20.1949C5.52254 20.2122 5.57797 20.1323 5.53986 20.0698C5.27656 19.6354 4.64602 18.3983 5.59529 17.8388C6.54456 17.2793 8.2872 18.1933 8.81727 18.5095C8.87963 18.5477 8.95238 18.4921 8.94199 18.4226L8.86231 18.0021Z" fill="#F98D36"/>
<path d="M6.55562 19.4441L7.20002 20.2642L8.177 19.9063L7.59843 20.775L8.24283 21.5951L7.23813 21.3102L6.65609 22.1789L6.61798 21.1329L5.61328 20.848L6.59373 20.4866L6.55562 19.4441Z" fill="#F43430"/>
<path d="M32.916 18.7528C32.916 21.022 33.3941 22.6344 35.9544 22.3633C37.2016 22.2313 38.3206 21.4737 38.8368 20.327C40.1014 17.5122 38.0816 14.7739 35.4278 14.7739C33.3318 14.7739 32.9195 16.6469 32.9195 18.7528H32.916Z" fill="#F8B733" stroke="#130000" stroke-miterlimit="10"/>
<path d="M33.1383 18.0021C33.2007 17.672 33.3323 17.3558 33.5298 17.0813C34.0356 16.3758 35.1373 15.2013 36.5751 15.7469C38.1133 16.3307 38.5914 17.9431 37.9089 19.0724C37.4204 19.8786 36.8418 20.1219 36.5508 20.1949C36.4781 20.2122 36.4226 20.1323 36.4607 20.0698C36.724 19.6354 37.3546 18.3983 36.4053 17.8388C35.456 17.2793 33.7134 18.1933 33.1833 18.5095C33.121 18.5477 33.0482 18.4921 33.0586 18.4226L33.1383 18.0021Z" fill="#F98D36"/>
<path d="M35.4489 19.4441L34.8045 20.2642L33.8241 19.9063L34.4061 20.775L33.7617 21.5951L34.763 21.3102L35.345 22.1789L35.3831 21.1329L36.3878 20.848L35.4074 20.4866L35.4489 19.4441Z" fill="#F43430"/>
<path d="M30.7855 22.6863C30.5638 19.5866 28.589 18.8777 28.589 18.8777C30.983 15.0066 30.5222 9.92265 27.4076 8.81066C22.9938 7.23649 21.3378 10.1312 21.0018 10.854C20.6657 10.1312 19.0132 7.23649 14.5959 8.81066C11.4814 9.91918 11.0206 15.0031 13.4145 18.8777C13.4145 18.8777 11.4398 19.5866 11.218 22.6863C10.9963 25.786 13.8753 28.0725 17.6447 28.7258C18.8469 28.9343 19.9901 29.0386 21.0018 29.0386C22.0134 29.0386 23.1601 28.9343 24.3589 28.7258C28.1248 28.0725 31.0072 25.7895 30.7855 22.6863Z" fill="#F8B733" stroke="#130000" stroke-miterlimit="10"/>
<path d="M19.3044 7.37894C19.3044 7.37894 13.4494 6.68394 12.9401 11.952C11.9112 22.5994 4.49023 15.4548 4.49023 15.4548C4.49023 15.4548 7.97897 13.7555 8.38778 8.77241C8.57833 6.44069 15.7048 3.18115 15.878 3.18115C16.0512 3.18115 19.3044 7.38242 19.3044 7.38242V7.37894Z" fill="#130000"/>
<path d="M22.6963 7.37894C22.6963 7.37894 28.5513 6.68394 29.0606 11.952C30.0895 22.5994 37.5104 15.4548 37.5104 15.4548C37.5104 15.4548 34.0217 13.7555 33.6129 8.77241C33.4223 6.44069 26.2959 3.18115 26.1227 3.18115C25.9494 3.18115 22.6963 7.38242 22.6963 7.38242V7.37894Z" fill="#130000"/>
</svg>
