<svg width="52" height="57" viewBox="0 0 52 57" fill="none" xmlns="http://www.w3.org/2000/svg">
<path d="M49.9299 43.8963C49.6999 44.4663 49.4299 45.0163 49.1399 45.5563C43.6299 55.6663 27.78 60.7163 13.21 49.5963C-2.14004 37.8763 5.9599 15.3663 5.3999 13.9863C4.8399 12.6063 1 6.11628 1 6.11628C4.39 -1.11372 9.13 1.43626 9.13 1.43626L10.7699 10.6063L15.01 13.0063C19.26 15.4163 19.5 30.9363 29.76 35.7463C36.25 38.7863 43.9499 37.7163 47.8999 38.6663C48.0499 38.6963 48.1799 38.7363 48.3199 38.7763C50.3899 39.3963 51.2199 40.7363 49.9199 43.8863L49.9299 43.8963Z" fill="#F8B733" stroke="#130000" stroke-miterlimit="10"/>
</svg>
